<?xml version="1.0" encoding="UTF-8" standalone="no"?>
<!DOCTYPE svg PUBLIC "-//W3C//DTD SVG 1.1//EN"
 "http://www.w3.org/Graphics/SVG/1.1/DTD/svg11.dtd">
<!-- Generated by graphviz version 2.40.1 (20161225.0304)
 -->
<!-- Title: CFG_15RefactorPartIns Pages: 1 -->
<svg width="441pt" height="490pt"
 viewBox="0.00 0.00 440.50 490.00" xmlns="http://www.w3.org/2000/svg" xmlns:xlink="http://www.w3.org/1999/xlink">
<g id="graph0" class="graph" transform="scale(1 1) rotate(0) translate(4 486)">
<title>CFG_15RefactorPartIns</title>
<polygon fill="#ffffff" stroke="transparent" points="-4,4 -4,-486 436.5,-486 436.5,4 -4,4"/>
<text text-anchor="middle" x="216.25" y="-7.8" font-family="Times,serif" font-size="14.00" fill="#000000"> 15RefactorPartIns </text>
<!-- main_label_entry -->
<g id="node1" class="node">
<title>main_label_entry</title>
<polygon fill="none" stroke="#000000" points="140.5,-338.5 140.5,-481.5 388.5,-481.5 388.5,-338.5 140.5,-338.5"/>
<text text-anchor="start" x="148.5" y="-466.3" font-family="Times,serif" font-size="14.00" fill="#000000">@main</text>
<text text-anchor="start" x="148.5" y="-451.3" font-family="Times,serif" font-size="14.00" fill="#000000">label_entry ;preds: </text>
<text text-anchor="start" x="148.5" y="-436.3" font-family="Times,serif" font-size="14.00" fill="#000000"> [ 100 x i32]* %34 = Alloca Init 0 </text>
<text text-anchor="start" x="148.5" y="-421.3" font-family="Times,serif" font-size="14.00" fill="#000000"> [ 100 x i32]* %35 = Alloca Init 0 </text>
<text text-anchor="start" x="148.5" y="-406.3" font-family="Times,serif" font-size="14.00" fill="#000000"> i32* %1 = GEP [ 100 x i32]* %35 i32 0 </text>
<text text-anchor="start" x="148.5" y="-391.3" font-family="Times,serif" font-size="14.00" fill="#000000"> i32 %2 = Call getarray i32* %1 </text>
<text text-anchor="start" x="148.5" y="-376.3" font-family="Times,serif" font-size="14.00" fill="#000000"> i32* %3 = GEP [ 100 x i32]* %34 i32 0 </text>
<text text-anchor="start" x="148.5" y="-361.3" font-family="Times,serif" font-size="14.00" fill="#000000"> i32 %4 = Call getarray i32* %3 </text>
<text text-anchor="start" x="148.5" y="-346.3" font-family="Times,serif" font-size="14.00" fill="#000000"> Br label_ %13 </text>
</g>
<!-- main_label_13 -->
<g id="node2" class="node">
<title>main_label_13</title>
<polygon fill="none" stroke="#000000" points="96.5,-218.5 96.5,-301.5 432.5,-301.5 432.5,-218.5 96.5,-218.5"/>
<text text-anchor="start" x="104.5" y="-286.3" font-family="Times,serif" font-size="14.00" fill="#000000">@main</text>
<text text-anchor="start" x="104.5" y="-271.3" font-family="Times,serif" font-size="14.00" fill="#000000">label_13 ;preds: %17 %entry </text>
<text text-anchor="start" x="104.5" y="-256.3" font-family="Times,serif" font-size="14.00" fill="#000000"> i32 %36 = PHI i32 %31 label_ %17 i32 0 label_ %entry </text>
<text text-anchor="start" x="104.5" y="-241.3" font-family="Times,serif" font-size="14.00" fill="#000000"> i1 %16 = CmpLT i32 %36 i32 10 </text>
<text text-anchor="start" x="104.5" y="-226.3" font-family="Times,serif" font-size="14.00" fill="#000000"> Br i1 %16 label_ %17 label_ %32 </text>
</g>
<!-- main_label_entry&#45;&gt;main_label_13 -->
<g id="edge1" class="edge">
<title>main_label_entry&#45;&gt;main_label_13</title>
<path fill="none" stroke="#000000" d="M264.5,-338.0754C264.5,-329.202 264.5,-320.271 264.5,-311.7806"/>
<polygon fill="#000000" stroke="#000000" points="268.0001,-311.6759 264.5,-301.676 261.0001,-311.676 268.0001,-311.6759"/>
</g>
<!-- main_label_32 -->
<g id="node3" class="node">
<title>main_label_32</title>
<polygon fill="none" stroke="#000000" points="0,-76 0,-129 137,-129 137,-76 0,-76"/>
<text text-anchor="start" x="8" y="-113.8" font-family="Times,serif" font-size="14.00" fill="#000000">@main</text>
<text text-anchor="start" x="8" y="-98.8" font-family="Times,serif" font-size="14.00" fill="#000000">label_32 ;preds: %13 </text>
<text text-anchor="start" x="8" y="-83.8" font-family="Times,serif" font-size="14.00" fill="#000000"> ret i32 0 </text>
</g>
<!-- main_label_13&#45;&gt;main_label_32 -->
<g id="edge2" class="edge">
<title>main_label_13&#45;&gt;main_label_32</title>
<path fill="none" stroke="#000000" d="M195.321,-218.3571C178.4978,-207.2384 160.9217,-194.7485 145.5,-182 128.8531,-168.2387 111.9797,-151.2348 98.2882,-136.489"/>
<polygon fill="#000000" stroke="#000000" points="100.7733,-134.0204 91.4365,-129.0129 95.6127,-138.7499 100.7733,-134.0204"/>
</g>
<!-- main_label_17 -->
<g id="node4" class="node">
<title>main_label_17</title>
<polygon fill="none" stroke="#000000" points="155,-23.5 155,-181.5 374,-181.5 374,-23.5 155,-23.5"/>
<text text-anchor="start" x="163" y="-166.3" font-family="Times,serif" font-size="14.00" fill="#000000">@main</text>
<text text-anchor="start" x="163" y="-151.3" font-family="Times,serif" font-size="14.00" fill="#000000">label_17 ;preds: %13 </text>
<text text-anchor="start" x="163" y="-136.3" font-family="Times,serif" font-size="14.00" fill="#000000"> i32* %20 = GEP i32* %1 i32 %36 </text>
<text text-anchor="start" x="163" y="-121.3" font-family="Times,serif" font-size="14.00" fill="#000000"> i32 %24 = Load i32* %20 </text>
<text text-anchor="start" x="163" y="-106.3" font-family="Times,serif" font-size="14.00" fill="#000000"> i32* %27 = GEP i32* %3 i32 %36 </text>
<text text-anchor="start" x="163" y="-91.3" font-family="Times,serif" font-size="14.00" fill="#000000"> i32 %28 = Load i32* %27 </text>
<text text-anchor="start" x="163" y="-76.3" font-family="Times,serif" font-size="14.00" fill="#000000"> i32 %29 = Add i32 %24 i32 %28 </text>
<text text-anchor="start" x="163" y="-61.3" font-family="Times,serif" font-size="14.00" fill="#000000"> Store i32 %29 i32* %20 </text>
<text text-anchor="start" x="163" y="-46.3" font-family="Times,serif" font-size="14.00" fill="#000000"> i32 %31 = Add i32 %36 i32 1 </text>
<text text-anchor="start" x="163" y="-31.3" font-family="Times,serif" font-size="14.00" fill="#000000"> Br label_ %13 </text>
</g>
<!-- main_label_13&#45;&gt;main_label_17 -->
<g id="edge3" class="edge">
<title>main_label_13&#45;&gt;main_label_17</title>
<path fill="none" stroke="#000000" d="M258.4595,-218.2064C258.1159,-209.9076 257.8971,-200.9006 257.8031,-191.7"/>
<polygon fill="#000000" stroke="#000000" points="261.303,-191.6459 257.7501,-181.6646 254.3031,-191.6829 261.303,-191.6459"/>
</g>
<!-- main_label_17&#45;&gt;main_label_13 -->
<g id="edge4" class="edge">
<title>main_label_17&#45;&gt;main_label_13</title>
<path fill="none" stroke="#000000" d="M271.2499,-181.6646C271.2463,-190.6421 271.1257,-199.6125 270.8882,-208.109"/>
<polygon fill="#000000" stroke="#000000" points="267.3868,-208.0918 270.5405,-218.2064 274.3827,-208.3328 267.3868,-208.0918"/>
</g>
</g>
</svg>
