<?xml version="1.0" encoding="UTF-8" standalone="no"?>
<!DOCTYPE svg PUBLIC "-//W3C//DTD SVG 1.1//EN"
 "http://www.w3.org/Graphics/SVG/1.1/DTD/svg11.dtd">
<!-- Generated by graphviz version 2.40.1 (20161225.0304)
 -->
<!-- Title: CFG_14Multithreading Pages: 1 -->
<svg width="562pt" height="850pt"
 viewBox="0.00 0.00 561.50 850.00" xmlns="http://www.w3.org/2000/svg" xmlns:xlink="http://www.w3.org/1999/xlink">
<g id="graph0" class="graph" transform="scale(1 1) rotate(0) translate(4 846)">
<title>CFG_14Multithreading</title>
<polygon fill="#ffffff" stroke="transparent" points="-4,4 -4,-846 557.5,-846 557.5,4 -4,4"/>
<text text-anchor="middle" x="276.75" y="-7.8" font-family="Times,serif" font-size="14.00" fill="#000000"> 14Multithreading </text>
<!-- main_label_entry -->
<g id="node1" class="node">
<title>main_label_entry</title>
<polygon fill="none" stroke="#000000" points="89.5,-698.5 89.5,-841.5 337.5,-841.5 337.5,-698.5 89.5,-698.5"/>
<text text-anchor="start" x="97.5" y="-826.3" font-family="Times,serif" font-size="14.00" fill="#000000">@main</text>
<text text-anchor="start" x="97.5" y="-811.3" font-family="Times,serif" font-size="14.00" fill="#000000">label_entry ;preds: </text>
<text text-anchor="start" x="97.5" y="-796.3" font-family="Times,serif" font-size="14.00" fill="#000000"> [ 100 x i32]* %34 = Alloca Init 0 </text>
<text text-anchor="start" x="97.5" y="-781.3" font-family="Times,serif" font-size="14.00" fill="#000000"> [ 100 x i32]* %35 = Alloca Init 0 </text>
<text text-anchor="start" x="97.5" y="-766.3" font-family="Times,serif" font-size="14.00" fill="#000000"> i32* %1 = GEP [ 100 x i32]* %35 i32 0 </text>
<text text-anchor="start" x="97.5" y="-751.3" font-family="Times,serif" font-size="14.00" fill="#000000"> i32 %2 = Call getarray i32* %1 </text>
<text text-anchor="start" x="97.5" y="-736.3" font-family="Times,serif" font-size="14.00" fill="#000000"> i32* %3 = GEP [ 100 x i32]* %34 i32 0 </text>
<text text-anchor="start" x="97.5" y="-721.3" font-family="Times,serif" font-size="14.00" fill="#000000"> i32 %4 = Call getarray i32* %3 </text>
<text text-anchor="start" x="97.5" y="-706.3" font-family="Times,serif" font-size="14.00" fill="#000000"> Br label_ %MutithreadBegin0 </text>
</g>
<!-- main_label_MutithreadBegin0 -->
<g id="node2" class="node">
<title>main_label_MutithreadBegin0</title>
<polygon fill="none" stroke="#000000" points="95,-428.5 95,-661.5 332,-661.5 332,-428.5 95,-428.5"/>
<text text-anchor="start" x="103" y="-646.3" font-family="Times,serif" font-size="14.00" fill="#000000">@main</text>
<text text-anchor="start" x="103" y="-631.3" font-family="Times,serif" font-size="14.00" fill="#000000">label_MutithreadBegin0 ;preds: %entry </text>
<text text-anchor="start" x="103" y="-616.3" font-family="Times,serif" font-size="14.00" fill="#000000"> i32 %37 = Call __mtstart </text>
<text text-anchor="start" x="103" y="-601.3" font-family="Times,serif" font-size="14.00" fill="#000000"> i32 %38 = Sub i32 10 i32 0 </text>
<text text-anchor="start" x="103" y="-586.3" font-family="Times,serif" font-size="14.00" fill="#000000"> i32 %39 = Mul i32 %38 i32 %37 </text>
<text text-anchor="start" x="103" y="-571.3" font-family="Times,serif" font-size="14.00" fill="#000000"> i32 %40 = Div i32 %39 i32 4 </text>
<text text-anchor="start" x="103" y="-556.3" font-family="Times,serif" font-size="14.00" fill="#000000"> i32 %41 = Add i32 %37 i32 1 </text>
<text text-anchor="start" x="103" y="-541.3" font-family="Times,serif" font-size="14.00" fill="#000000"> i32 %42 = Mul i32 %38 i32 %41 </text>
<text text-anchor="start" x="103" y="-526.3" font-family="Times,serif" font-size="14.00" fill="#000000"> i32 %43 = Div i32 %42 i32 4 </text>
<text text-anchor="start" x="103" y="-511.3" font-family="Times,serif" font-size="14.00" fill="#000000"> i32 %44 = Add i32 %43 i32 0 </text>
<text text-anchor="start" x="103" y="-496.3" font-family="Times,serif" font-size="14.00" fill="#000000"> i32 %45 = Add i32 %40 i32 0 </text>
<text text-anchor="start" x="103" y="-481.3" font-family="Times,serif" font-size="14.00" fill="#000000"> i32 %46 = Div i32 %45 i32 1 </text>
<text text-anchor="start" x="103" y="-466.3" font-family="Times,serif" font-size="14.00" fill="#000000"> i32 %47 = Mul i32 %46 i32 1 </text>
<text text-anchor="start" x="103" y="-451.3" font-family="Times,serif" font-size="14.00" fill="#000000"> i32 %48 = Add i32 %47 i32 0 </text>
<text text-anchor="start" x="103" y="-436.3" font-family="Times,serif" font-size="14.00" fill="#000000"> Br label_ %13 </text>
</g>
<!-- main_label_entry&#45;&gt;main_label_MutithreadBegin0 -->
<g id="edge1" class="edge">
<title>main_label_entry&#45;&gt;main_label_MutithreadBegin0</title>
<path fill="none" stroke="#000000" d="M213.5,-698.4994C213.5,-689.8056 213.5,-680.7334 213.5,-671.5339"/>
<polygon fill="#000000" stroke="#000000" points="217.0001,-671.5135 213.5,-661.5135 210.0001,-671.5136 217.0001,-671.5135"/>
</g>
<!-- main_label_13 -->
<g id="node3" class="node">
<title>main_label_13</title>
<polygon fill="none" stroke="#000000" points="0,-308.5 0,-391.5 427,-391.5 427,-308.5 0,-308.5"/>
<text text-anchor="start" x="8" y="-376.3" font-family="Times,serif" font-size="14.00" fill="#000000">@main</text>
<text text-anchor="start" x="8" y="-361.3" font-family="Times,serif" font-size="14.00" fill="#000000">label_13 ;preds: %17 %MutithreadBegin0 </text>
<text text-anchor="start" x="8" y="-346.3" font-family="Times,serif" font-size="14.00" fill="#000000"> i32 %36 = PHI i32 %31 label_ %17 i32 %48 label_ %MutithreadBegin0 </text>
<text text-anchor="start" x="8" y="-331.3" font-family="Times,serif" font-size="14.00" fill="#000000"> i1 %16 = CmpLT i32 %36 i32 %44 </text>
<text text-anchor="start" x="8" y="-316.3" font-family="Times,serif" font-size="14.00" fill="#000000"> Br i1 %16 label_ %17 label_ %MutithreadEnd0 </text>
</g>
<!-- main_label_MutithreadBegin0&#45;&gt;main_label_13 -->
<g id="edge2" class="edge">
<title>main_label_MutithreadBegin0&#45;&gt;main_label_13</title>
<path fill="none" stroke="#000000" d="M213.5,-428.4711C213.5,-419.3205 213.5,-410.4027 213.5,-402.057"/>
<polygon fill="#000000" stroke="#000000" points="217.0001,-401.8174 213.5,-391.8174 210.0001,-401.8175 217.0001,-401.8174"/>
</g>
<!-- main_label_17 -->
<g id="node4" class="node">
<title>main_label_17</title>
<polygon fill="none" stroke="#000000" points="104,-113.5 104,-271.5 323,-271.5 323,-113.5 104,-113.5"/>
<text text-anchor="start" x="112" y="-256.3" font-family="Times,serif" font-size="14.00" fill="#000000">@main</text>
<text text-anchor="start" x="112" y="-241.3" font-family="Times,serif" font-size="14.00" fill="#000000">label_17 ;preds: %13 </text>
<text text-anchor="start" x="112" y="-226.3" font-family="Times,serif" font-size="14.00" fill="#000000"> i32* %20 = GEP i32* %1 i32 %36 </text>
<text text-anchor="start" x="112" y="-211.3" font-family="Times,serif" font-size="14.00" fill="#000000"> i32 %24 = Load i32* %20 </text>
<text text-anchor="start" x="112" y="-196.3" font-family="Times,serif" font-size="14.00" fill="#000000"> i32* %27 = GEP i32* %3 i32 %36 </text>
<text text-anchor="start" x="112" y="-181.3" font-family="Times,serif" font-size="14.00" fill="#000000"> i32 %28 = Load i32* %27 </text>
<text text-anchor="start" x="112" y="-166.3" font-family="Times,serif" font-size="14.00" fill="#000000"> i32 %29 = Add i32 %24 i32 %28 </text>
<text text-anchor="start" x="112" y="-151.3" font-family="Times,serif" font-size="14.00" fill="#000000"> Store i32 %29 i32* %20 </text>
<text text-anchor="start" x="112" y="-136.3" font-family="Times,serif" font-size="14.00" fill="#000000"> i32 %31 = Add i32 %36 i32 1 </text>
<text text-anchor="start" x="112" y="-121.3" font-family="Times,serif" font-size="14.00" fill="#000000"> Br label_ %13 </text>
</g>
<!-- main_label_13&#45;&gt;main_label_17 -->
<g id="edge3" class="edge">
<title>main_label_13&#45;&gt;main_label_17</title>
<path fill="none" stroke="#000000" d="M207.4595,-308.2064C207.1159,-299.9076 206.8971,-290.9006 206.8031,-281.7"/>
<polygon fill="#000000" stroke="#000000" points="210.303,-281.6459 206.7501,-271.6646 203.3031,-281.6829 210.303,-281.6459"/>
</g>
<!-- main_label_MutithreadEnd0 -->
<g id="node5" class="node">
<title>main_label_MutithreadEnd0</title>
<polygon fill="none" stroke="#000000" points="341.5,-158.5 341.5,-226.5 553.5,-226.5 553.5,-158.5 341.5,-158.5"/>
<text text-anchor="start" x="349.5" y="-211.3" font-family="Times,serif" font-size="14.00" fill="#000000">@main</text>
<text text-anchor="start" x="349.5" y="-196.3" font-family="Times,serif" font-size="14.00" fill="#000000">label_MutithreadEnd0 ;preds: %13 </text>
<text text-anchor="start" x="349.5" y="-181.3" font-family="Times,serif" font-size="14.00" fill="#000000"> Call __mtend i32 %37 </text>
<text text-anchor="start" x="349.5" y="-166.3" font-family="Times,serif" font-size="14.00" fill="#000000"> Br label_ %32 </text>
</g>
<!-- main_label_13&#45;&gt;main_label_MutithreadEnd0 -->
<g id="edge4" class="edge">
<title>main_label_13&#45;&gt;main_label_MutithreadEnd0</title>
<path fill="none" stroke="#000000" d="M277.6114,-308.3917C295.4422,-296.7072 314.7751,-283.933 332.5,-272 351.444,-259.2463 371.9974,-245.1283 390.4182,-232.3717"/>
<polygon fill="#000000" stroke="#000000" points="392.4951,-235.1907 398.7182,-226.6162 388.5062,-229.4384 392.4951,-235.1907"/>
</g>
<!-- main_label_17&#45;&gt;main_label_13 -->
<g id="edge5" class="edge">
<title>main_label_17&#45;&gt;main_label_13</title>
<path fill="none" stroke="#000000" d="M220.2499,-271.6646C220.2463,-280.6421 220.1257,-289.6125 219.8882,-298.109"/>
<polygon fill="#000000" stroke="#000000" points="216.3868,-298.0918 219.5405,-308.2064 223.3827,-298.3328 216.3868,-298.0918"/>
</g>
<!-- main_label_32 -->
<g id="node6" class="node">
<title>main_label_32</title>
<polygon fill="none" stroke="#000000" points="341.5,-23.5 341.5,-76.5 553.5,-76.5 553.5,-23.5 341.5,-23.5"/>
<text text-anchor="start" x="349.5" y="-61.3" font-family="Times,serif" font-size="14.00" fill="#000000">@main</text>
<text text-anchor="start" x="349.5" y="-46.3" font-family="Times,serif" font-size="14.00" fill="#000000">label_32 ;preds: %MutithreadEnd0 </text>
<text text-anchor="start" x="349.5" y="-31.3" font-family="Times,serif" font-size="14.00" fill="#000000"> ret i32 0 </text>
</g>
<!-- main_label_MutithreadEnd0&#45;&gt;main_label_32 -->
<g id="edge6" class="edge">
<title>main_label_MutithreadEnd0&#45;&gt;main_label_32</title>
<path fill="none" stroke="#000000" d="M447.5,-158.3677C447.5,-136.759 447.5,-108.8308 447.5,-86.7388"/>
<polygon fill="#000000" stroke="#000000" points="451.0001,-86.7299 447.5,-76.73 444.0001,-86.73 451.0001,-86.7299"/>
</g>
</g>
</svg>
